<?xml version="1.0" standalone="no"?><!DOCTYPE svg PUBLIC "-//W3C//DTD SVG 1.1//EN" "http://www.w3.org/Graphics/SVG/1.1/DTD/svg11.dtd"><svg t="1732027547957" class="icon" viewBox="0 0 1024 1024" version="1.1" xmlns="http://www.w3.org/2000/svg" p-id="6250" xmlns:xlink="http://www.w3.org/1999/xlink" width="200" height="200"><path d="M512 854.016q139.989333 0 240.981333-100.992t100.992-240.981333q0-43.989333-13.994667-96-38.016 9.984-96 9.984-219.989333 0-347.989333-180.010667-66.005333 160-224 230.016-2.005333 11.989333-2.005333 36.010667 0 139.989333 100.992 240.981333t240.981333 100.992zM512 86.016q176 0 301.013333 125.013333t125.013333 301.013333-125.013333 301.013333-301.013333 125.013333-301.013333-125.013333-125.013333-301.013333 125.013333-301.013333 301.013333-125.013333zM640 502.016q22.016 0 38.016 15.018667t16 36.992-16 38.016-38.016 16-38.016-16-16-38.016 16-36.992 38.016-15.018667zM384 502.016q22.016 0 38.016 15.018667t16 36.992-16 38.016-38.016 16-38.016-16-16-38.016 16-36.992 38.016-15.018667z" fill="#444444" p-id="6251"></path></svg>